<?xml version="1.0" encoding="UTF-8" standalone="no"?>
<svg
   width="60"
   height="59"
   viewBox="0 0 60 59"
   fill="none"
   version="1.1"
   id="svg8"
   sodipodi:docname="logo.svg"
   inkscape:version="1.1.2 (b8e25be8, 2022-02-05)"
   xmlns:inkscape="http://www.inkscape.org/namespaces/inkscape"
   xmlns:sodipodi="http://sodipodi.sourceforge.net/DTD/sodipodi-0.dtd"
   xmlns:xlink="http://www.w3.org/1999/xlink"
   xmlns="http://www.w3.org/2000/svg"
   xmlns:svg="http://www.w3.org/2000/svg">
  <defs
     id="defs12">
    <linearGradient
       inkscape:collect="always"
       id="linearGradient54761">
      <stop
         style="stop-color:#194b5e;stop-opacity:1"
         offset="0"
         id="stop54755" />
      <stop
         style="stop-color:#42c8fb;stop-opacity:1"
         offset="0.47172317"
         id="stop54757" />
      <stop
         style="stop-color:#40abf9;stop-opacity:1"
         offset="1"
         id="stop54759" />
    </linearGradient>
    <linearGradient
       inkscape:collect="always"
       id="linearGradient30181-5">
      <stop
         style="stop-color:#45e2fe;stop-opacity:1"
         offset="0"
         id="stop30177" />
      <stop
         style="stop-color:#40aff9;stop-opacity:1"
         offset="0.53087121"
         id="stop30183" />
      <stop
         style="stop-color:#3e96f7;stop-opacity:1"
         offset="1"
         id="stop30179" />
    </linearGradient>
    <linearGradient
       inkscape:collect="always"
       id="linearGradient7971-3-5-4-3">
      <stop
         style="stop-color:#3c87f5;stop-opacity:1"
         offset="0"
         id="stop7967" />
      <stop
         style="stop-color:#163957;stop-opacity:1"
         offset="1"
         id="stop7969" />
    </linearGradient>
    <linearGradient
       id="linearGradient7943"
       inkscape:swatch="solid">
      <stop
         style="stop-color:#000000;stop-opacity:1;"
         offset="0"
         id="stop7941" />
    </linearGradient>
    <linearGradient
       id="linearGradient7917"
       inkscape:swatch="solid">
      <stop
         style="stop-color:#ff00ff;stop-opacity:1;"
         offset="0"
         id="stop7915" />
    </linearGradient>
    <linearGradient
       inkscape:collect="always"
       xlink:href="#linearGradient7971-3-5-4-3"
       id="linearGradient7973"
       x1="115.25729"
       y1="17.169115"
       x2="96.503777"
       y2="54.669113"
       gradientUnits="userSpaceOnUse"
       gradientTransform="translate(-61,0.875)" />
    <linearGradient
       inkscape:collect="always"
       xlink:href="#linearGradient54761"
       id="linearGradient52518"
       x1="81.9375"
       y1="49.875"
       x2="89.9375"
       y2="7.5"
       gradientUnits="userSpaceOnUse"
       gradientTransform="translate(-61,0.875)" />
    <linearGradient
       inkscape:collect="always"
       xlink:href="#linearGradient30181-5"
       id="linearGradient95438"
       x1="66.212051"
       y1="29.054134"
       x2="106.81284"
       y2="29.054134"
       gradientUnits="userSpaceOnUse"
       gradientTransform="translate(-61,0.875)" />
  </defs>
  <sodipodi:namedview
     id="namedview10"
     pagecolor="#505050"
     bordercolor="#ffffff"
     borderopacity="1"
     inkscape:pageshadow="0"
     inkscape:pageopacity="0"
     inkscape:pagecheckerboard="1"
     showgrid="false"
     inkscape:snap-grids="true"
     inkscape:zoom="8"
     inkscape:cx="29.1875"
     inkscape:cy="25.3125"
     inkscape:window-width="1920"
     inkscape:window-height="993"
     inkscape:window-x="0"
     inkscape:window-y="25"
     inkscape:window-maximized="1"
     inkscape:current-layer="svg8" />
  <path
     style="opacity:1;fill:url(#linearGradient7973);fill-opacity:1;stroke:none;stroke-width:1px;stroke-linecap:butt;stroke-linejoin:miter;stroke-opacity:1"
     d="m 40.75709,7.3494465 c 0,0 3.97747,1.6572815 7.71188,5.6568545 3.73441,3.999572 5.52427,9.126097 5.83363,10.54031 0.30936,1.414214 1.94454,9.280777 -1.19324,16.042485 -3.13779,6.761709 -6.51033,9.68247 -10.25305,11.932427 -3.8228,2.298097 -10.474021,3.270369 -10.474021,3.270369 0,0 1.226389,-0.05524 3.56868,-0.972272 2.342291,-0.917029 3.977471,-2.298097 4.540951,-2.795281 0.56348,-0.497185 2.44173,-2.706893 2.44173,-2.706893 0,0 3.35876,-2.850525 4.46361,-4.187398 C 48.50211,42.793174 50.14062,40.171875 51,37.84375 51.85937,35.515625 52.59375,31.734375 52.375,28.4375 52.15625,25.140625 50.96875,21.65625 49.875,19.546875 48.78125,17.4375 46.78125,14.859375 44.51562,12.96875 42.25,11.078125 40.96875,10.34375 40.09375,9.90625 39.21875,9.46875 39.12891,8.8515625 39.125,8.5664062 39.121,8.28125 39.168,8.140625 39.28125,7.9296875 39.39453,7.71875 39.82031,7.3515625 40.14453,7.3085937 c 0.32422,-0.042969 0.61256,0.040853 0.61256,0.040853 z"
     id="path4724"
     sodipodi:nodetypes="csssscsscssssssccsc" />
  <path
     style="mix-blend-mode:normal;fill:url(#linearGradient95438);fill-opacity:1;stroke:none;stroke-width:1px;stroke-linecap:butt;stroke-linejoin:miter;stroke-opacity:1"
     d="M 30.203125,8.609375 27.5,7.75 C 28.46875,6.3125 28.546875,6.25 28.835937,5.890625 29.125,5.53125 29.75,4.9453125 30.15625,4.9453125 c 0.40625,0 0.8125,0.2421875 1.109375,0.5625 0.296875,0.3203125 3.370567,4.9352265 3.370567,4.9352265 0,0 5.789438,9.170291 8.220118,15.578446 2.43068,6.408155 3.49134,10.871767 2.69584,15.909902 -0.79549,5.038136 -2.45278,6.728564 -2.45278,6.728564 0,0 -3.91292,5.408208 -10.717081,6.131941 C 25.578125,55.515625 19.4375,52.84375 16.34375,50.78125 c -3.09375,-2.0625 -5.6875,-4.625 -8.1249998,-8.9375 -2.4375,-4.3125 -3.65625,-11.09375 -2.65625,-16.25 1,-5.15625 3.125,-9.5625 6.6874998,-13.0625 3.5625,-3.5 6.7746,-5.0160754 7.371222,-5.2149492 0.596621,-0.1988738 1.160097,0.066291 1.447359,0.5634757 0.287262,0.4971845 0.430893,1.2042913 -0.15468,1.7014757 -0.585573,0.4971848 -3.579728,1.8561558 -5.480077,3.6239218 -1.90035,1.767767 -5.08233,5.325398 -6.4523498,9.766913 -1.370019,4.441514 -1.568893,10.827572 0.618719,15.600543 2.1876108,4.772971 6.1871838,9.700621 12.1312998,12.020815 C 27.67561,52.91364 33.34375,52.96875 37.59375,49.875 c 4.25,-3.09375 5.6875,-7.40625 5.5,-11.78125 -0.1875,-4.375 -2,-10.40625 -3.875,-14.125 C 37.34375,20.25 34.09375,14.09375 32.5,11.875 30.90625,9.65625 30.203125,8.609375 30.203125,8.609375 Z"
     id="path7151"
     sodipodi:nodetypes="ccssscsscssssssssssssssssc" />
  <path
     style="opacity:1;fill:none;fill-opacity:1;stroke:none;stroke-width:0.0883883"
     d="m 18.406729,51.924632 c -4.078515,-2.165231 -7.052608,-5.021498 -9.6693128,-9.28624 -1.556706,-2.537141 -2.634261,-5.667194 -3.194972,-9.280674 -0.257437,-1.659047 -0.321563,-4.997133 -0.124801,-6.496544 0.627914,-4.784968 2.656012,-9.487137 5.5468778,-12.860504 2.035562,-2.37531 5.112586,-4.847331 7.695329,-6.1822787 1.056611,-0.546133 1.492682,-0.6177937 1.973863,-0.32437 0.497489,0.3033683 0.78054,1.1919509 0.532485,1.6716347 -0.161235,0.3117957 -0.531777,0.5799133 -1.732802,1.253828 -1.809341,1.015251 -3.339059,2.102681 -4.395954,3.124948 -2.383788,2.305687 -4.318832,5.040072 -5.4663208,7.724387 -0.735145,1.719719 -1.312474,4.106483 -1.532824,6.33691 -0.21972,2.224064 -0.07643,5.212592 0.351485,7.330724 0.806007,3.989648 3.6485468,8.740864 7.0440518,11.773911 0.905111,0.808494 1.881594,1.566901 1.940984,1.50751 0.02112,-0.02112 -0.05977,-0.193925 -0.179759,-0.384003 -0.980251,-1.552819 -1.996701,-4.257176 -2.417814,-6.432814 -0.212453,-1.097612 -0.210659,-3.75738 0.0035,-5.214912 0.699785,-4.762259 2.872296,-11.143757 5.547954,-16.296472 1.179695,-2.271828 4.337057,-7.733706 4.886023,-8.452265 l 0.135054,-0.176777 8.84e-4,0.176777 c 4.42e-4,0.09723 -0.194333,1.502176 -0.432924,3.12211 l -0.4338,2.945333 -0.836787,1.518279 c -1.607712,2.917057 -2.033197,3.848123 -3.480899,7.617073 -2.157456,5.616724 -2.720279,7.758787 -2.936579,11.176413 -0.220181,3.478934 0.552338,6.452359 2.353406,9.058257 l 0.493045,0.713369 -0.334159,2.342291 c -0.183788,1.28826 -0.358635,2.370534 -0.388549,2.405052 -0.02991,0.03452 -0.455927,-0.15041 -0.946696,-0.410953 z"
     id="path28770" />
  <path
     style="opacity:1;fill:none;fill-opacity:1;stroke:none;stroke-width:0.0883883"
     d="m 28.138034,52.13989 c -1.03778,-0.188783 -3.31266,-1.08605 -4.771356,-1.881938 -2.792387,-1.523571 -5.109146,-4.857043 -5.826425,-8.383355 -0.54161,-2.662685 -0.247233,-6.313482 0.792146,-9.824026 0.598872,-2.022711 2.834861,-7.90195 3.696324,-9.718995 1.044789,-2.203726 3.25817,-6.071819 5.291456,-9.247322 1.58681,-2.478215 2.826576,-4.3427905 2.884264,-4.3378595 0.09783,0.00836 2.672495,3.7435155 3.352418,4.8634735 1.985808,3.270985 5.527129,9.99332 6.568429,12.468558 1.27237,3.024516 2.37555,7.121477 2.77884,10.319992 0.20347,1.613747 0.14453,4.183592 -0.12456,5.430477 -0.56819,2.632817 -1.70606,4.741702 -3.53414,6.550042 -1.960677,1.939508 -3.969011,3.030073 -6.597976,3.582833 -0.99917,0.210083 -3.73883,0.318297 -4.50942,0.17812 z"
     id="path28846" />
  <path
     style="fill:url(#linearGradient52518);fill-opacity:1;stroke:none;stroke-width:1px;stroke-linecap:butt;stroke-linejoin:miter;stroke-opacity:1"
     d="m 30.253906,8.5429687 c 0,0 -6.191406,8.5195313 -9.378906,15.7695313 -3.1875,7.25 -3.8125,11.3125 -3.8125,15.125 0,3.8125 3.078003,9.123013 5.818042,10.581421 2.740039,1.458408 5.257492,2.120969 5.257492,2.120969 0,0 -2.893104,-0.353202 -4.174735,-0.795144 -1.281631,-0.441941 -3.425048,-1.193242 -4.971844,-2.099223 -1.546797,-0.90598 -1.74567,-1.126951 -1.74567,-1.126951 0,0 -2.43068,-3.557631 -2.740039,-7.601398 C 14.196387,36.473407 15.875765,30.264126 16.803843,27.590378 17.731921,24.916631 21.974561,16.453446 24.02959,12.984204 26.084619,9.514961 27.5,7.75 27.5,7.75 Z"
     id="path52396"
     sodipodi:nodetypes="cssscsscssscc" />
</svg>
